<svg xmlns="http://www.w3.org/2000/svg" xmlns:xlink="http://www.w3.org/1999/xlink" width="500" zoomAndPan="magnify" viewBox="0 0 375 374.999991" height="500" preserveAspectRatio="xMidYMid meet" version="1.0"><defs><clipPath id="22e2d79071"><path d="M 165 165 L 246.710938 165 L 246.710938 246.710938 L 165 246.710938 Z M 165 165 " clip-rule="nonzero"/></clipPath><clipPath id="6b8fd5d139"><path d="M 128.210938 128.210938 L 210 128.210938 L 210 210 L 128.210938 210 Z M 128.210938 128.210938 " clip-rule="nonzero"/></clipPath></defs><g clip-path="url(#22e2d79071)"><path fill="#3871c1" d="M 209.796875 165.109375 C 209.796875 165.109375 208.042969 165.808594 205.175781 167.335938 C 180.480469 180.492188 165.109375 206.253906 165.109375 234.238281 L 165.109375 246.703125 L 209.796875 246.703125 L 209.796875 209.796875 L 246.703125 209.796875 L 246.703125 165.109375 L 209.796875 165.109375 " fill-opacity="1" fill-rule="nonzero"/></g><g clip-path="url(#6b8fd5d139)"><path fill="#51aee5" d="M 165.109375 128.203125 L 165.109375 165.109375 L 128.203125 165.109375 L 128.203125 209.796875 C 140.800781 209.796875 152.753906 204.105469 160.589844 194.246094 C 170.652344 181.582031 186.144531 170.71875 209.796875 165.109375 L 209.796875 128.203125 L 165.109375 128.203125 " fill-opacity="1" fill-rule="nonzero"/></g></svg>