<svg xmlns="http://www.w3.org/2000/svg" xmlns:xlink="http://www.w3.org/1999/xlink" width="500" zoomAndPan="magnify" viewBox="0 0 375 374.999991" height="500" preserveAspectRatio="xMidYMid meet" version="1.0"><defs><g/></defs><g fill="#ffffff" fill-opacity="1"><g transform="translate(81.635925, 245.375917)"><g><path d="M 31 -26.6875 L 31 0 L 24.515625 0 L 24.515625 -18.046875 L 16.6875 -7.59375 L 9.046875 -18 L 9.046875 0 L 2.84375 0 L 2.84375 -26.6875 L 9.4375 -26.6875 L 16.921875 -16.28125 L 24.5625 -26.6875 Z M 31 -26.6875 "/></g></g></g><g fill="#ffffff" fill-opacity="1"><g transform="translate(115.472566, 245.375917)"><g><path d="M 11.59375 -20.921875 C 17.914062 -20.921875 21.035156 -16.800781 20.953125 -8.5625 L 7.59375 -8.5625 C 8.101562 -5.757812 9.984375 -4.359375 13.234375 -4.359375 C 14.222656 -4.359375 15.191406 -4.5 16.140625 -4.78125 C 17.085938 -5.0625 18.09375 -5.425781 19.15625 -5.875 L 19.15625 -0.765625 C 16.96875 0.140625 14.515625 0.59375 11.796875 0.59375 C 9.742188 0.59375 7.941406 0.175781 6.390625 -0.65625 C 4.847656 -1.5 3.648438 -2.707031 2.796875 -4.28125 C 1.941406 -5.851562 1.515625 -7.707031 1.515625 -9.84375 C 1.515625 -13.363281 2.390625 -16.085938 4.140625 -18.015625 C 5.890625 -19.953125 8.375 -20.921875 11.59375 -20.921875 Z M 11.359375 -16.359375 C 9.222656 -16.359375 7.957031 -15.023438 7.5625 -12.359375 L 15.046875 -12.359375 C 14.859375 -13.796875 14.476562 -14.820312 13.90625 -15.4375 C 13.332031 -16.050781 12.484375 -16.359375 11.359375 -16.359375 Z M 11.359375 -16.359375 "/></g></g></g><g fill="#ffffff" fill-opacity="1"><g transform="translate(137.950328, 245.375917)"><g><path d="M 21.71875 -28.5625 L 21.71875 -5.28125 C 21.71875 -4.03125 21.273438 -2.960938 20.390625 -2.078125 C 19.515625 -1.203125 18.359375 -0.535156 16.921875 -0.078125 C 15.484375 0.367188 13.945312 0.59375 12.3125 0.59375 C 8.875 0.59375 6.210938 -0.21875 4.328125 -1.84375 C 2.453125 -3.46875 1.515625 -6.28125 1.515625 -10.28125 C 1.515625 -13.632812 2.332031 -16.238281 3.96875 -18.09375 C 5.613281 -19.945312 8.023438 -20.875 11.203125 -20.875 C 13.097656 -20.875 14.628906 -20.53125 15.796875 -19.84375 L 15.796875 -28.5625 Z M 15.796875 -15.234375 C 14.734375 -15.796875 13.695312 -16.078125 12.6875 -16.078125 C 10.894531 -16.078125 9.582031 -15.625 8.75 -14.71875 C 7.925781 -13.8125 7.515625 -12.28125 7.515625 -10.125 C 7.515625 -8.25 7.898438 -6.828125 8.671875 -5.859375 C 9.453125 -4.890625 10.75 -4.40625 12.5625 -4.40625 C 13.550781 -4.40625 14.335938 -4.535156 14.921875 -4.796875 C 15.503906 -5.066406 15.796875 -5.441406 15.796875 -5.921875 Z M 15.796875 -15.234375 "/></g></g></g><g fill="#ffffff" fill-opacity="1"><g transform="translate(162.307908, 245.375917)"><g><path d="M 2.640625 -27.59375 L 8.796875 -27.59375 L 8.796875 -23 L 2.640625 -23 Z M 2.765625 -19.953125 L 8.71875 -19.953125 L 8.765625 0 L 2.765625 0 Z M 2.765625 -19.953125 "/></g></g></g><g fill="#00ced1" fill-opacity="1"><g transform="translate(172.38496, 245.375917)"><g><path d="M 21.078125 -1.15625 C 21.554688 -0.351562 22.03125 0.222656 22.5 0.578125 C 22.96875 0.941406 23.453125 1.125 23.953125 1.125 C 24.328125 1.125 24.679688 1.066406 25.015625 0.953125 C 25.347656 0.847656 25.78125 0.632812 26.3125 0.3125 L 26.3125 2.875 C 25.40625 3.351562 24.515625 3.59375 23.640625 3.59375 C 22.546875 3.59375 21.550781 3.265625 20.65625 2.609375 C 19.757812 1.960938 18.992188 1.066406 18.359375 -0.078125 C 17.160156 0.242188 15.828125 0.40625 14.359375 0.40625 C 10.410156 0.40625 7.429688 -0.742188 5.421875 -3.046875 C 3.410156 -5.359375 2.40625 -8.78125 2.40625 -13.3125 C 2.40625 -17.851562 3.410156 -21.273438 5.421875 -23.578125 C 7.429688 -25.890625 10.410156 -27.046875 14.359375 -27.046875 C 18.328125 -27.046875 21.316406 -25.890625 23.328125 -23.578125 C 25.347656 -21.273438 26.359375 -17.851562 26.359375 -13.3125 C 26.359375 -7.289062 24.597656 -3.238281 21.078125 -1.15625 Z M 5.359375 -13.3125 C 5.359375 -11.070312 5.597656 -9.195312 6.078125 -7.6875 C 6.554688 -6.1875 7.300781 -5 8.3125 -4.125 L 8.3125 -6.125 C 9.007812 -6.65625 9.722656 -7.09375 10.453125 -7.4375 C 11.191406 -7.78125 12.082031 -7.953125 13.125 -7.953125 C 15.65625 -7.953125 17.828125 -6.515625 19.640625 -3.640625 C 20.941406 -4.441406 21.894531 -5.628906 22.5 -7.203125 C 23.101562 -8.773438 23.40625 -10.8125 23.40625 -13.3125 C 23.40625 -17.101562 22.679688 -19.882812 21.234375 -21.65625 C 19.796875 -23.425781 17.503906 -24.3125 14.359375 -24.3125 C 11.242188 -24.3125 8.960938 -23.425781 7.515625 -21.65625 C 6.078125 -19.882812 5.359375 -17.101562 5.359375 -13.3125 Z M 8.796875 -3.765625 C 10.210938 -2.796875 12.066406 -2.3125 14.359375 -2.3125 C 15.453125 -2.375 16.332031 -2.484375 17 -2.640625 C 16.46875 -3.546875 15.875 -4.25 15.21875 -4.75 C 14.5625 -5.257812 13.753906 -5.515625 12.796875 -5.515625 C 11.972656 -5.515625 11.25 -5.359375 10.625 -5.046875 C 10 -4.742188 9.390625 -4.316406 8.796875 -3.765625 Z M 8.796875 -3.765625 "/></g></g></g><g fill="#00ced1" fill-opacity="1"><g transform="translate(201.142107, 245.375917)"><g><path d="M 11.5625 0.59375 C 8.894531 0.59375 6.832031 -0.0859375 5.375 -1.453125 C 3.925781 -2.828125 3.203125 -4.78125 3.203125 -7.3125 L 3.203125 -19.953125 L 6.078125 -19.953125 L 6.078125 -7.953125 C 6.078125 -5.929688 6.515625 -4.445312 7.390625 -3.5 C 8.273438 -2.550781 9.664062 -2.078125 11.5625 -2.078125 C 13.425781 -2.078125 14.804688 -2.550781 15.703125 -3.5 C 16.597656 -4.445312 17.046875 -5.929688 17.046875 -7.953125 L 17.046875 -19.953125 L 19.921875 -19.953125 L 19.921875 -7.3125 C 19.921875 -4.78125 19.191406 -2.828125 17.734375 -1.453125 C 16.285156 -0.0859375 14.226562 0.59375 11.5625 0.59375 Z M 11.5625 0.59375 "/></g></g></g><g fill="#00ced1" fill-opacity="1"><g transform="translate(224.259811, 245.375917)"><g><path d="M 10.953125 -20.3125 C 13.992188 -20.3125 16.222656 -19.328125 17.640625 -17.359375 C 19.054688 -15.390625 19.738281 -12.765625 19.6875 -9.484375 L 5.125 -9.484375 C 5.125 -7.078125 5.679688 -5.234375 6.796875 -3.953125 C 7.921875 -2.679688 9.519531 -2.046875 11.59375 -2.046875 C 14.257812 -2.046875 16.539062 -2.617188 18.4375 -3.765625 L 18.4375 -0.796875 C 16.488281 0.128906 14.15625 0.59375 11.4375 0.59375 C 8.53125 0.59375 6.265625 -0.300781 4.640625 -2.09375 C 3.015625 -3.894531 2.203125 -6.53125 2.203125 -10 C 2.203125 -13.382812 2.96875 -15.945312 4.5 -17.6875 C 6.03125 -19.4375 8.179688 -20.3125 10.953125 -20.3125 Z M 10.953125 -17.6875 C 9.191406 -17.6875 7.859375 -17.273438 6.953125 -16.453125 C 6.046875 -15.640625 5.472656 -14.195312 5.234375 -12.125 L 16.640625 -12.125 C 16.503906 -13.988281 15.976562 -15.378906 15.0625 -16.296875 C 14.144531 -17.222656 12.773438 -17.6875 10.953125 -17.6875 Z M 10.953125 -17.6875 "/></g></g></g><g fill="#00ced1" fill-opacity="1"><g transform="translate(246.137641, 245.375917)"><g><path d="M 11.5625 0.59375 C 8.894531 0.59375 6.832031 -0.0859375 5.375 -1.453125 C 3.925781 -2.828125 3.203125 -4.78125 3.203125 -7.3125 L 3.203125 -19.953125 L 6.078125 -19.953125 L 6.078125 -7.953125 C 6.078125 -5.929688 6.515625 -4.445312 7.390625 -3.5 C 8.273438 -2.550781 9.664062 -2.078125 11.5625 -2.078125 C 13.425781 -2.078125 14.804688 -2.550781 15.703125 -3.5 C 16.597656 -4.445312 17.046875 -5.929688 17.046875 -7.953125 L 17.046875 -19.953125 L 19.921875 -19.953125 L 19.921875 -7.3125 C 19.921875 -4.78125 19.191406 -2.828125 17.734375 -1.453125 C 16.285156 -0.0859375 14.226562 0.59375 11.5625 0.59375 Z M 11.5625 0.59375 "/></g></g></g><g fill="#00ced1" fill-opacity="1"><g transform="translate(269.255345, 245.375917)"><g><path d="M 10.953125 -20.3125 C 13.992188 -20.3125 16.222656 -19.328125 17.640625 -17.359375 C 19.054688 -15.390625 19.738281 -12.765625 19.6875 -9.484375 L 5.125 -9.484375 C 5.125 -7.078125 5.679688 -5.234375 6.796875 -3.953125 C 7.921875 -2.679688 9.519531 -2.046875 11.59375 -2.046875 C 14.257812 -2.046875 16.539062 -2.617188 18.4375 -3.765625 L 18.4375 -0.796875 C 16.488281 0.128906 14.15625 0.59375 11.4375 0.59375 C 8.53125 0.59375 6.265625 -0.300781 4.640625 -2.09375 C 3.015625 -3.894531 2.203125 -6.53125 2.203125 -10 C 2.203125 -13.382812 2.96875 -15.945312 4.5 -17.6875 C 6.03125 -19.4375 8.179688 -20.3125 10.953125 -20.3125 Z M 10.953125 -17.6875 C 9.191406 -17.6875 7.859375 -17.273438 6.953125 -16.453125 C 6.046875 -15.640625 5.472656 -14.195312 5.234375 -12.125 L 16.640625 -12.125 C 16.503906 -13.988281 15.976562 -15.378906 15.0625 -16.296875 C 14.144531 -17.222656 12.773438 -17.6875 10.953125 -17.6875 Z M 10.953125 -17.6875 "/></g></g></g></svg>